<?xml version="1.0" encoding="UTF-8" standalone="no"?>
<!-- Created with Inkscape (http://www.inkscape.org/) -->

<svg
   xmlns:dc="http://purl.org/dc/elements/1.1/"
   xmlns:cc="http://creativecommons.org/ns#"
   xmlns:rdf="http://www.w3.org/1999/02/22-rdf-syntax-ns#"
   xmlns:svg="http://www.w3.org/2000/svg"
   xmlns="http://www.w3.org/2000/svg"
   xmlns:sodipodi="http://sodipodi.sourceforge.net/DTD/sodipodi-0.dtd"
   xmlns:inkscape="http://www.inkscape.org/namespaces/inkscape"
   width="1274.9132"
   height="1042.9639"
   viewBox="0 0 337.31913 275.95087"
   version="1.1"
   id="svg3813"
   inkscape:version="0.92.2 (5c3e80d, 2017-08-06)"
   sodipodi:docname="NurLogoSchool_ink.svg">
  <defs
     id="defs3807" />
  <sodipodi:namedview
     id="base"
     pagecolor="#ffffff"
     bordercolor="#668766"
     borderopacity="1"
     inkscape:pageopacity="0.0"
     inkscape:pageshadow="2"
     inkscape:zoom="0.58"
     inkscape:cx="488.62674"
     inkscape:cy="675.14225"
     inkscape:document-units="mm"
     inkscape:current-layer="layer1"
     showgrid="false"
     inkscape:window-width="2560"
     inkscape:window-height="1377"
     inkscape:window-x="-8"
     inkscape:window-y="-8"
     inkscape:window-maximized="1"
     units="px"
     showguides="true"
     inkscape:guide-bbox="true"
     fit-margin-top="2"
     fit-margin-left="1.3"
     fit-margin-right="1.3"
     fit-margin-bottom="2.2"
     inkscape:pagecheckerboard="false"
     showborder="true"
     borderlayer="false"
     inkscape:showpageshadow="true"
     viewbox-width="336.79">
    <sodipodi:guide
       position="-38.811373,132.18111"
       orientation="1,0"
       id="guide3869"
       inkscape:locked="false" />
  </sodipodi:namedview>
  <metadata
     id="metadata3810">
    <rdf:RDF>
      <cc:Work
         rdf:about="">
        <dc:format>image/svg+xml</dc:format>
        <dc:type
           rdf:resource="http://purl.org/dc/dcmitype/StillImage" />
        <dc:title></dc:title>
      </cc:Work>
    </rdf:RDF>
  </metadata>
  <g
     inkscape:label="Ebene 1"
     inkscape:groupmode="layer"
     id="layer1"
     transform="translate(0.08218567,-21.73223)">
    <path
       d="m 183.67081,289.34663 c -13.91497,5.16958 -29.12286,7.7544 -45.62299,7.7544 -27.83063,0 -52.15114,-6.09459 -72.95409,-18.28447 C 44.27561,266.62702 28.27502,250.25179 17.06939,229.68343 5.85635,209.13025 0.26094,186.52777 0.26094,161.89894 c 0,-26.83932 5.59541,-50.8515 16.80845,-72.036504 C 28.27502,68.684834 43.90872,52.126152 63.98495,40.17898 84.05377,28.237452 106.89084,22.261397 132.51133,22.261397 c 15.75823,0 30.34912,2.091972 43.77266,6.279444 13.42284,4.191 25.30405,9.486194 35.65067,15.889111 l -16.99225,40.26288 C 174.99142,70.652982 154.67283,63.640114 133.987,63.640114 c -15.76564,0 -30.474,4.244268 -44.14697,12.740214 -13.66555,8.495948 -24.56286,20.076231 -32.69156,34.726032 -8.12906,14.65686 -12.18988,30.72377 -12.18988,48.20779 0,18.46791 3.75249,35.034 11.26454,49.6838 7.51205,14.65686 18.22556,26.11226 32.14088,34.3588 13.90791,8.25358 29.98223,12.37297 48.20779,12.37297 13.0489,0 24.81262,-1.9678 35.27637,-5.91114 10.4715,-3.93594 19.26872,-8.98808 26.41352,-15.14158 l 18.10209,38.41962 c -7.88035,5.66102 -18.77765,11.08075 -32.69297,16.25001"
       style="fill:#fab90a;fill-opacity:1;fill-rule:nonzero;stroke:none;stroke-width:0.03527778"
       id="path44"
       inkscape:connector-curvature="0" />
    <path
       d="m 253.24317,208.7242 h -92.04254 v -92.04325 h 92.04254 v 92.04325"
       style="fill:#51ade5;fill-opacity:1;fill-rule:nonzero;stroke:none;stroke-width:0.03527778"
       id="path46"
       inkscape:connector-curvature="0" />
    <path
       d="M 336.89383,97.549466 H 268.72658 V 29.38398 h 68.16725 v 68.165486"
       style="fill:#9c1661;fill-opacity:1;fill-rule:nonzero;stroke:none;stroke-width:0.03527778"
       id="path48"
       inkscape:connector-curvature="0" />
    <path
       d="m 308.33648,153.14089 h -39.6099 v -39.61024 h 39.6099 v 39.61024"
       style="fill:#27963c;fill-opacity:1;fill-rule:nonzero;stroke:none;stroke-width:0.03527778"
       id="path50"
       inkscape:connector-curvature="0" />
    <path
       d="M 255.29281,97.549466 H 215.68116 V 57.939224 h 39.61165 v 39.610242"
       style="fill:#2e3192;fill-opacity:1;fill-rule:nonzero;stroke:none;stroke-width:0.03527778"
       id="path52"
       inkscape:connector-curvature="0" />
  </g>
</svg>
