<?xml version="1.0" ?><svg contentScriptType="text/ecmascript" contentStyleType="text/css" height="60.000000px" preserveAspectRatio="xMidYMid meet" version="1.0" viewBox="0 0 60.000000 60.000000" width="60.000000px" xmlns="http://www.w3.org/2000/svg" xmlns:xlink="http://www.w3.org/1999/xlink" zoomAndPan="magnify"><g><line fill="none" stroke="#000000" stroke-linecap="round" stroke-linejoin="round" stroke-miterlimit="10" stroke-width="2" x1="1.0" x2="59.0" y1="51.0" y2="51.0"/><line fill="none" stroke="#000000" stroke-linecap="round" stroke-linejoin="round" stroke-miterlimit="10" stroke-width="2" x1="1.0" x2="59.0" y1="43.0" y2="43.0"/><line fill="none" stroke="#000000" stroke-linecap="round" stroke-linejoin="round" stroke-miterlimit="10" stroke-width="2" x1="1.0" x2="59.0" y1="35.0" y2="35.0"/><line fill="none" stroke="#000000" stroke-linecap="round" stroke-linejoin="round" stroke-miterlimit="10" stroke-width="2" x1="25.0" x2="25.0" y1="43.0" y2="51.0"/><line fill="none" stroke="#000000" stroke-linecap="round" stroke-linejoin="round" stroke-miterlimit="10" stroke-width="2" x1="47.0" x2="47.0" y1="43.0" y2="51.0"/><line fill="none" stroke="#000000" stroke-linecap="round" stroke-linejoin="round" stroke-miterlimit="10" stroke-width="2" x1="25.0" x2="25.0" y1="27.0" y2="35.0"/><line fill="none" stroke="#000000" stroke-linecap="round" stroke-linejoin="round" stroke-miterlimit="10" stroke-width="2" x1="47.0" x2="47.0" y1="27.0" y2="35.0"/><line fill="none" stroke="#000000" stroke-linecap="round" stroke-linejoin="round" stroke-miterlimit="10" stroke-width="2" x1="13.0" x2="13.0" y1="51.0" y2="59.0"/><line fill="none" stroke="#000000" stroke-linecap="round" stroke-linejoin="round" stroke-miterlimit="10" stroke-width="2" x1="35.0" x2="35.0" y1="51.0" y2="59.0"/><line fill="none" stroke="#000000" stroke-linecap="round" stroke-linejoin="round" stroke-miterlimit="10" stroke-width="2" x1="13.0" x2="13.0" y1="35.0" y2="43.0"/><line fill="none" stroke="#000000" stroke-linecap="round" stroke-linejoin="round" stroke-miterlimit="10" stroke-width="2" x1="35.0" x2="35.0" y1="35.0" y2="43.0"/><rect fill="none" height="32" stroke="#000000" stroke-linecap="round" stroke-linejoin="round" stroke-miterlimit="10" stroke-width="2" width="58" x="1.0" y="27.0"/><path d="M 45.0 22.0 c 1.891 1.891 -3.0 5.0 -3.0 5.0" fill="none" stroke="#000000" stroke-linecap="round" stroke-linejoin="round" stroke-miterlimit="10" stroke-width="2"/><path d="M 15.0 22.0 c -1.892 1.891 3.0 5.0 3.0 5.0" fill="none" stroke="#000000" stroke-linecap="round" stroke-linejoin="round" stroke-miterlimit="10" stroke-width="2"/><path d="M 50.317993 27.0 c 3.133 -5.754 0.455 -11.742 -6.318 -14.0 c 1.261 3.783 -2.739 3.217 -4.0 7.0 c 1.261 -12.609 -10.044 -10.173 -5.0 -19.0 c -10.648 1.782 -15.449 10.109 -13.0 20.0 c -2.449 -4.848 -8.261 -4.956 -7.0 -10.0 c -5.546 2.584 -8.33 10.664 -5.473 16.0 H 50.317993 z" fill="none" stroke="#000000" stroke-linecap="round" stroke-linejoin="round" stroke-miterlimit="10" stroke-width="2"/><path d="M 35.460007 27.0 c -0.165 -3.095 -5.525 -3.672 -4.46 -9.0 c 0.0 0.0 -4.929 4.508 -4.553 9.0" fill="none" stroke="#000000" stroke-linecap="round" stroke-linejoin="round" stroke-miterlimit="10" stroke-width="2"/></g></svg>