<?xml version="1.0" ?><!DOCTYPE svg  PUBLIC '-//W3C//DTD SVG 1.1//EN'  'http://www.w3.org/Graphics/SVG/1.1/DTD/svg11.dtd'><svg enable-background="new 0 0 66 66" id="Layer_1" version="1.1" viewBox="0 0 66 66" xml:space="preserve" xmlns="http://www.w3.org/2000/svg" xmlns:xlink="http://www.w3.org/1999/xlink"><g><g><path d="M47.4,15.2c1.1-0.4,2.5,0.3,2.5,1.3c0,0.6,0.4,1,1,1c0.6,0,1-0.4,1-1c0-2.4-2.8-4-5.2-3.2c-0.5,0.2-0.8,0.7-0.6,1.3    C46.3,15.1,46.9,15.3,47.4,15.2z"/></g><g><path d="M40.4,7.5C40.9,8.2,41,9,40.8,9.7c-0.2,0.5,0.1,1.1,0.6,1.3c0.5,0.2,1.1-0.1,1.3-0.6C43.1,9,42.9,7.5,42,6.3    c-2.7-3.7-9-2.8-10.2,1.4c-0.2,0.5,0.1,1.1,0.7,1.2c0.5,0.2,1.1-0.1,1.2-0.7C34.5,5.7,38.7,5.2,40.4,7.5z"/></g><g><path d="M27.8,9.4c-2-0.6-4.1,0.4-4.8,2.2c-0.2,0.5,0.1,1.1,0.6,1.3c0.1,0,0.2,0.1,0.3,0.1c0.4,0,0.8-0.3,0.9-0.7    c0.3-0.8,1.4-1.2,2.4-0.9c0.5,0.2,1.1-0.1,1.2-0.7C28.6,10.2,28.3,9.6,27.8,9.4z"/></g><g><path d="M19,13.2c-2.3-0.7-5,0.8-5,3.3c0,1.9,1.7,3.4,3.8,3.4c0.6,0,1-0.4,1-1c0-0.6-0.4-1-1-1c-1,0-1.8-0.7-1.8-1.4    c0-1,1.4-1.7,2.4-1.3c0.5,0.2,1.1-0.1,1.2-0.7C19.9,13.9,19.6,13.4,19,13.2z"/></g><g><path d="M22.6,29.8c-0.6,0-1,0.4-1,1V34c0,0.6,0.4,1,1,1c0.6,0,1-0.4,1-1v-3.2C23.6,30.3,23.1,29.8,22.6,29.8z"/></g><g><path d="M27.6,29.8c-0.6,0-1,0.4-1,1V34c0,0.6,0.4,1,1,1s1-0.4,1-1v-3.2C28.6,30.3,28.1,29.8,27.6,29.8z"/></g><g><path d="M36.4,33.1c0.4-0.4,0.4-1,0-1.4c-0.4-0.4-1-0.4-1.4,0c-0.4,0.4-0.4,1,0,1.4C35.4,33.5,36.1,33.5,36.4,33.1z"/></g><g><path d="M40.1,33.1c0.4-0.4,0.4-1,0-1.4c-0.4-0.4-1-0.4-1.4,0c-0.4,0.4-0.4,1.1,0,1.4C39.1,33.5,39.7,33.5,40.1,33.1z"/></g><g><path d="M43.8,33.1c0.4-0.4,0.4-1,0-1.4c-0.4-0.4-1-0.4-1.4,0c-0.4,0.4-0.4,1.1,0,1.4C42.8,33.5,43.4,33.5,43.8,33.1z"/></g><g><path d="M63.9,59.1v-9.2c0-0.9-0.8-1.7-1.7-1.7H56v-5.4c0-0.6-0.4-1-1-1H34.8v-3.3h12.7c1.7,0,3-1.4,3-3v-5.9c0-1.7-1.4-3-3-3    H34.6v-3.1h13.6c4.3,0,7.9-3.1,7.9-6.9c0-4.3-4.4-7.5-9.1-6.8C47.8,0.1,32.2-3.2,28.2,6c-3.5-0.6-7.1,0.9-8.7,3.8    c-4.9-0.9-9.5,2.3-9.5,6.7c0,3.8,3.5,6.9,7.9,6.9h14.7v3.1H20.1c-1.7,0-3,1.4-3,3v5.9c0,1.7,1.4,3,3,3h12.7v3.3H11    c-0.6,0-1,0.4-1,1v5.4H3.8c-0.9,0-1.7,0.8-1.7,1.7V59l-1.6,5.1c-0.2,0.6,0.3,1.3,1,1.3h19.2c0.7,0,1.2-0.7,1-1.3l-1.6-5v-9.2    c0-0.9-0.8-1.7-1.7-1.7H12v-4.4h21.8H54v4.4h-6.3c-0.9,0-1.7,0.8-1.7,1.7V59l-1.6,5.1c-0.2,0.6,0.3,1.3,1,1.3h19.2    c0.7,0,1.2-0.7,1-1.3L63.9,59.1z M12,16.5c0-3.4,4-5.7,7.8-4.6c0.5,0.1,1-0.1,1.2-0.6c0.9-2.5,4.2-4.1,7.5-3.2    c0.5,0.2,1.1-0.1,1.2-0.7c1.7-5.6,10.5-6.6,14-1.7c1.1,1.5,1.4,3.4,0.9,5c-0.1,0.4,0,0.8,0.2,1c0.3,0.3,0.7,0.4,1,0.2    c3.9-1.3,8.1,1.1,8.1,4.5c0,2.7-2.6,4.9-5.9,4.9H17.9C14.6,21.4,12,19.2,12,16.5z M19,35.4v-5.9c0-0.6,0.5-1,1-1h27.4    c0.6,0,1,0.5,1,1v5.9c0,0.6-0.5,1-1,1H20.1C19.5,36.5,19,36,19,35.4z M2.8,63.4l1-3.3h3.4c0.1,0.5,0.5,0.8,1,0.8h6.4    c0.5,0,0.9-0.4,1-0.8h2.6l1,3.3H2.8z M18,58.2h-3.4c-0.5,0-0.9,0.4-1,0.8H9.2c-0.1-0.4-0.5-0.8-1-0.8H4.1v-8H18V58.2z M61.9,50.2    v8h-3.4c-0.5,0-0.9,0.4-1,0.8h-4.4c-0.1-0.4-0.5-0.8-1-0.8h-4.1v-8H61.9z M46.8,63.4l1-3.3h3.4c0.1,0.5,0.5,0.8,1,0.8h6.4    c0.5,0,0.9-0.4,1-0.8h2.6l1,3.3H46.8z"/></g></g></svg>