<?xml version="1.0" ?><svg viewBox="0 0 64 64" xmlns="http://www.w3.org/2000/svg"><title/><g id="dining_table2"><line style="fill:none;stroke:#000;stroke-linecap:round;stroke-linejoin:round;stroke-width:2px" x1="17.403" x2="27.155" y1="53.099" y2="53.099"/><line style="fill:none;stroke:#000;stroke-linecap:round;stroke-linejoin:round;stroke-width:2px" x1="28" x2="28" y1="46.875" y2="58"/><line style="fill:none;stroke:#000;stroke-linecap:round;stroke-linejoin:round;stroke-width:2px" x1="17" x2="17" y1="46.875" y2="58"/><line style="fill:none;stroke:#000;stroke-linecap:round;stroke-linejoin:round;stroke-width:2px" x1="37.403" x2="47.155" y1="53.099" y2="53.099"/><line style="fill:none;stroke:#000;stroke-linecap:round;stroke-linejoin:round;stroke-width:2px" x1="48" x2="48" y1="46.875" y2="58"/><line style="fill:none;stroke:#000;stroke-linecap:round;stroke-linejoin:round;stroke-width:2px" x1="37" x2="37" y1="46.875" y2="58"/><path d="M16,30.5V22.853A3.853,3.853,0,0,1,19.853,19h5.294A3.853,3.853,0,0,1,29,22.853V30.5" style="fill:none;stroke:#000;stroke-linecap:round;stroke-linejoin:round;stroke-width:2px"/><rect height="3" style="fill:none;stroke:#000;stroke-linecap:round;stroke-linejoin:round;stroke-width:2px" width="15" x="15" y="43"/><path d="M30,39a2,2,0,0,1,2,2h0a2,2,0,0,1-2,2H15a2,2,0,0,1-2-2h0a2,2,0,0,1,2-2" style="fill:none;stroke:#000;stroke-linecap:round;stroke-linejoin:round;stroke-width:2px"/><polyline points="57 39 57 60 54 60 54 39.39" style="fill:none;stroke:#000;stroke-linecap:round;stroke-linejoin:round;stroke-width:2px"/><polyline points="10 39 10 60 7 60 7 39" style="fill:none;stroke:#000;stroke-linecap:round;stroke-linejoin:round;stroke-width:2px"/><path d="M36,30.5V22.853A3.853,3.853,0,0,1,39.853,19h5.294A3.853,3.853,0,0,1,49,22.853V30.5" style="fill:none;stroke:#000;stroke-linecap:round;stroke-linejoin:round;stroke-width:2px"/><rect height="3" style="fill:none;stroke:#000;stroke-linecap:round;stroke-linejoin:round;stroke-width:2px" width="15" x="35" y="43"/><rect height="5" style="fill:none;stroke:#000;stroke-linecap:round;stroke-linejoin:round;stroke-width:2px" width="60" x="2" y="31"/><path d="M59.073,36a3,3,0,0,1-3,3H7.927a3,3,0,0,1-3-3" style="fill:none;stroke:#000;stroke-linecap:round;stroke-linejoin:round;stroke-width:2px"/><path d="M50,39a2,2,0,0,1,2,2h0a2,2,0,0,1-2,2H35a2,2,0,0,1-2-2h0a2,2,0,0,1,2-2" style="fill:none;stroke:#000;stroke-linecap:round;stroke-linejoin:round;stroke-width:2px"/></g></svg>