<?xml version="1.0"?>
<svg xmlns="http://www.w3.org/2000/svg" viewBox="0 0 32 32">
    <path style="text-indent:0;text-align:start;line-height:normal;text-transform:none;block-progression:tb;-inkscape-font-specification:Bitstream Vera Sans" d="M 16 4 C 9.383 4 4 9.383 4 16 C 4 16.672 4.0745 17.339 4.1875 18 L 6.21875 18 C 6.08175 17.341 6 16.673 6 16 C 6 10.486 10.486 6 16 6 C 21.514 6 26 10.486 26 16 C 26 16.673 25.91825 17.341 25.78125 18 L 27.8125 18 C 27.9265 17.339 28 16.672 28 16 C 28 9.383 22.617 4 16 4 z M 16 8 C 11.593562 8 8 11.593562 8 16 L 10 16 C 10 12.674438 12.674438 10 16 10 L 16 8 z M 16 13 C 14.346 13 13 14.346 13 16 C 13 16.771 13.30225 17.468 13.78125 18 L 18.21875 18 C 18.69875 17.468 19 16.771 19 16 C 19 14.346 17.654 13 16 13 z M 16 15 C 16.552 15 17 15.449 17 16 C 17 16.551 16.552 17 16 17 C 15.448 17 15 16.551 15 16 C 15 15.449 15.448 15 16 15 z M 4 19 L 4 20 L 4 26 L 4 27 L 5 27 L 27 27 L 28 27 L 28 26 L 28 20 L 28 19 L 27 19 L 5 19 L 4 19 z M 6 21 L 26 21 L 26 25 L 6 25 L 6 21 z" overflow="visible" font-family="Bitstream Vera Sans"/>
</svg>
